<svg width="162" height="109" viewBox="0 0 162 109" fill="none" xmlns="http://www.w3.org/2000/svg">
<path d="M20.4324 20.6784C22.0551 21.3101 23.5817 21.8456 25.0122 22.2849C26.4699 22.7242 28.0241 22.944 29.6745 22.944C30.8846 22.944 31.6962 22.793 32.1088 22.4909C32.5488 22.1613 32.7689 21.7632 32.7689 21.2963C32.7689 20.802 32.5626 20.4038 32.15 20.1017C31.7649 19.7722 30.9671 19.4152 29.757 19.0307C28.2991 18.5639 26.965 18.0833 25.7548 17.589C24.5719 17.0947 23.5543 16.4906 22.7017 15.7766C21.8765 15.0351 21.2299 14.1563 20.7625 13.1403C20.3224 12.0967 20.1023 10.8061 20.1023 9.26822C20.1023 7.78531 20.3912 6.46716 20.9688 5.31378C21.5464 4.1604 22.3578 3.19925 23.4031 2.43033C24.4758 1.63395 25.7685 1.0298 27.2814 0.61788C28.7942 0.205961 30.4858 0 32.3563 0C34.8593 0 37.0322 0.21969 38.8753 0.659072C40.7455 1.07099 42.2721 1.48291 43.455 1.89484L41.227 8.97988C40.8419 8.81511 40.3742 8.6366 39.8242 8.44438C39.274 8.25216 38.6826 8.07365 38.0501 7.90888C37.4174 7.74411 36.7434 7.6068 36.0284 7.49696C35.3406 7.38712 34.653 7.33219 33.9654 7.33219C33.0026 7.33219 32.26 7.48322 31.7374 7.78531C31.2147 8.08739 30.9535 8.48557 30.9535 8.97988C30.9535 9.25448 30.9948 9.50164 31.0773 9.72133C31.1872 9.91356 31.421 10.1195 31.7787 10.3392C32.1362 10.5314 32.6726 10.7649 33.3878 11.0395C34.1304 11.2866 35.1481 11.6162 36.441 12.0281C38.834 12.797 40.6494 13.8543 41.8872 15.1999C43.1524 16.518 43.7851 18.3579 43.7851 20.7196C43.7851 24.0424 42.7398 26.5277 40.6494 28.1754C38.5588 29.8231 35.5056 30.6469 31.4899 30.6469C29.4543 30.6469 27.4877 30.4821 25.5898 30.1526C23.7193 29.8231 22.0003 29.3838 20.4324 28.8345V20.6784ZM47.6108 13.2845H45.5376V8.03246H54.9447V20.4828C54.9447 21.2448 54.9962 21.8627 55.0994 22.3364C55.2025 22.8101 55.3573 23.1809 55.5635 23.4486C55.7698 23.7163 56.038 23.9017 56.3681 24.0047C56.6982 24.0871 57.1005 24.1283 57.5749 24.1283C58.0288 24.1283 58.4207 24.0871 58.7508 24.0047C59.1015 23.9017 59.38 23.7163 59.5863 23.4486C59.7926 23.1809 59.9473 22.8101 60.0505 22.3364C60.1536 21.8627 60.2052 21.2448 60.2052 20.4828V8.03246H69.3957V13.2845H67.3224V20.421C67.3224 22.0893 67.1471 23.5516 66.7963 24.8079C66.4663 26.0643 65.9196 27.1147 65.1563 27.9591C64.393 28.783 63.3925 29.4112 62.1547 29.8437C60.9169 30.2556 59.3903 30.4615 57.5749 30.4615C55.7389 30.4615 54.1814 30.2556 52.9023 29.8437C51.6439 29.4112 50.6228 28.783 49.8388 27.9591C49.0549 27.1147 48.4876 26.0643 48.1369 24.8079C47.7862 23.5516 47.6108 22.0893 47.6108 20.421V13.2845ZM71.0122 24.6535H73.0855V13.2845H71.0122V8.03246H82.245C83.6478 8.03246 84.8856 8.20752 85.9583 8.55766C87.0517 8.88719 87.9594 9.3712 88.6814 10.0097C89.4241 10.6276 89.9811 11.3793 90.3524 12.2649C90.7238 13.1506 90.9094 14.1289 90.9094 15.1999C90.9094 16.3533 90.7547 17.3831 90.4453 18.2893C90.1358 19.1749 89.6407 19.9164 88.9599 20.5137C88.2792 21.1109 87.4024 21.5641 86.3297 21.873C85.2776 22.1819 84.0088 22.3364 82.5235 22.3364H79.9861V24.6535H82.245V29.9055H71.0122V24.6535ZM81.9975 17.1771C83.2971 17.1771 83.947 16.5901 83.947 15.4161C83.947 14.2422 83.2971 13.6552 81.9975 13.6552H80.017V17.1771H81.9975ZM92.4981 24.6535H94.5714V13.2845H92.4981V8.03246H109.982V13.6861H101.781V15.8796H108.899V21.5332H101.781V24.2518H110.57V29.9055H92.4981V24.6535ZM112.439 22.9028H115.203V7.74411H112.439V0.741458H128.365C130.235 0.741458 131.872 0.974879 133.275 1.44172C134.705 1.88111 135.888 2.51272 136.823 3.33656C137.758 4.1604 138.46 5.14901 138.927 6.30239C139.395 7.42831 139.629 8.67779 139.629 10.0509C139.629 10.9296 139.546 11.7123 139.381 12.3988C139.216 13.0579 138.955 13.662 138.597 14.2113C138.267 14.733 137.841 15.2136 137.318 15.653C136.823 16.0649 136.232 16.4631 135.544 16.8476C136.177 17.3419 136.658 17.9323 136.988 18.6188C137.346 19.3054 137.662 19.9782 137.937 20.6372C138.24 21.2689 138.57 21.8044 138.927 22.2437C139.285 22.683 139.821 22.9028 140.536 22.9028H141.898V29.9055H134.801C133.784 29.9055 132.931 29.6857 132.243 29.2464C131.556 28.8071 130.978 28.244 130.51 27.5575C130.043 26.8434 129.644 26.0608 129.314 25.2096C128.984 24.3583 128.668 23.5345 128.365 22.738C128.062 21.9416 127.719 21.2139 127.333 20.5549C126.976 19.8958 126.536 19.4015 126.013 19.0719H124.322V22.9028H126.838V29.9055H112.439V22.9028ZM127.086 12.6872C127.939 12.6872 128.585 12.5087 129.025 12.1517C129.465 11.7947 129.685 11.218 129.685 10.4216C129.685 8.91123 128.819 8.15603 127.086 8.15603H124.363V12.6872H127.086ZM41.162 101.786H43.9264V86.627H41.162V79.6243H56.9643V86.627H53.7873V101.168H64.721V108.788H41.162V101.786ZM66.6004 103.536H68.6118L74.027 86.9153H83.6817L89.066 103.536H91.0774V108.788H83.1866L82.0107 104.649H75.141L73.9651 108.788H66.6004V103.536ZM80.3706 98.964L78.5758 92.7852L76.7811 98.964H80.3706ZM92.9476 101.786H95.712V86.627H92.9476V79.6243H108.42C110.593 79.6243 112.381 79.8441 113.784 80.2834C115.186 80.6953 116.273 81.2582 117.043 81.9723C117.841 82.6587 118.391 83.4552 118.693 84.3614C118.996 85.2676 119.147 86.1877 119.147 87.1213C119.147 88.7416 118.748 90.0459 117.951 91.0345C117.153 92.0231 116.231 92.7372 115.186 93.1765C116.974 93.7258 118.322 94.6456 119.23 95.9364C120.165 97.2271 120.633 98.6413 120.633 100.179C120.633 102.925 119.725 105.054 117.909 106.564C116.094 108.047 113.481 108.788 110.07 108.788H92.9476V101.786ZM107.265 90.8286C108.227 90.8286 108.874 90.6226 109.204 90.2107C109.561 89.7988 109.74 89.2771 109.74 88.6454C109.74 88.0687 109.561 87.5882 109.204 87.2037C108.874 86.7917 108.227 86.5858 107.265 86.5858H104.913V90.8286H107.265ZM107.636 101.662C108.516 101.662 109.204 101.442 109.699 101.003C110.221 100.564 110.483 99.9594 110.483 99.1906C110.483 98.3941 110.221 97.79 109.699 97.3781C109.204 96.9388 108.516 96.719 107.636 96.719H104.913V101.662H107.636Z" fill="black"/>
<path d="M23.3517 59.4418H19.6998V52.4232H34.0503V70.8851C31.7186 72.2752 29.3182 73.2247 26.8493 73.7333C24.4148 74.2419 21.8086 74.4962 19.0312 74.4962C15.8764 74.4962 13.0989 74.0384 10.6986 73.1229C8.33257 72.2075 6.34372 70.9191 4.73208 69.2576C3.15472 67.5962 1.9717 65.6126 1.18302 63.3071C0.394339 60.9675 0 58.3906 0 55.5764C0 52.6943 0.445774 50.1005 1.33733 47.795C2.26317 45.4554 3.58334 43.4719 5.29787 41.8444C7.01238 40.1829 9.10411 38.9114 11.573 38.0299C14.0419 37.1145 16.8537 36.6567 20.0084 36.6567C21.5858 36.6567 23.0603 36.7753 24.4318 37.0128C25.8035 37.2502 27.055 37.5382 28.1866 37.8774C29.3182 38.2165 30.3298 38.5894 31.2213 38.9963C32.113 39.4031 32.8673 39.776 33.4845 40.1152L29.5239 48.8121C28.4267 48.1001 27.2437 47.5238 25.9749 47.0829C24.7404 46.6083 23.3002 46.3709 21.6543 46.3709C20.2485 46.3709 19.014 46.6083 17.951 47.0829C16.888 47.5238 16.0136 48.1679 15.3278 49.0156C14.642 49.8293 14.1276 50.8125 13.7847 51.9654C13.4418 53.0843 13.2704 54.305 13.2704 55.6273C13.2704 56.8479 13.4075 58.0008 13.6819 59.0857C13.9562 60.1707 14.3848 61.1201 14.9678 61.9339C15.585 62.7476 16.3394 63.3919 17.2309 63.8665C18.1225 64.3412 19.1855 64.5786 20.4199 64.5786C21.0029 64.5786 21.5687 64.5446 22.1172 64.4768C22.7003 64.4091 23.1118 64.3412 23.3517 64.2734V59.4418ZM38.2003 66.6638H40.9573V51.6908H38.2003V44.7739H54.0836C55.9491 44.7739 57.5812 45.0044 58.9803 45.4656C60.4067 45.8995 61.5864 46.5235 62.5191 47.3372C63.4517 48.151 64.1512 49.1275 64.6176 50.2667C65.084 51.3789 65.3171 52.613 65.3171 53.9693C65.3171 54.8374 65.2349 55.6104 65.0703 56.2885C64.9057 56.9395 64.645 57.5362 64.2884 58.0787C63.9593 58.594 63.534 59.0689 63.0128 59.5028C62.5191 59.9097 61.9292 60.3029 61.2434 60.6827C61.8745 61.171 62.3545 61.7542 62.6836 62.4323C63.0402 63.1104 63.3558 63.775 63.6301 64.426C63.9319 65.0499 64.2611 65.5789 64.6176 66.0128C64.9742 66.4467 65.5091 66.6638 66.2224 66.6638H67.5803V73.5807H60.5028C59.4879 73.5807 58.6373 73.3636 57.9516 72.9297C57.2658 72.4957 56.6898 71.9396 56.2233 71.2615C55.7569 70.5562 55.3592 69.7831 55.03 68.9423C54.7008 68.1015 54.3854 67.2877 54.0836 66.5011C53.7818 65.7144 53.439 64.9956 53.0549 64.3446C52.6984 63.6936 52.2593 63.2054 51.7382 62.8799H50.0511V66.6638H52.5611V73.5807H38.2003V66.6638ZM52.808 56.5733C53.6583 56.5733 54.3031 56.3969 54.742 56.0443C55.1808 55.6918 55.4004 55.1222 55.4004 54.3355C55.4004 52.8437 54.5362 52.0977 52.808 52.0977H50.0922V56.5733H52.808ZM69.7046 66.6638H72.4615V51.6908H69.7046V44.7739H92.9535V52.2197H82.0491V55.1085H91.5133V62.5544H82.0491V66.1349H93.7353V73.5807H69.7046V66.6638ZM95.8645 66.6638H98.6215V51.6908H95.8645V44.7739H119.113V52.2197H108.209V55.1085H117.673V62.5544H108.209V66.1349H119.895V73.5807H95.8645V66.6638ZM122.292 64.9346H125.738V46.2183H122.292V37.5722H137.98L147.495 55.5764V37.5722H162V46.2183H158.554V73.5807H146.775L136.694 55.6273V73.5807H122.292V64.9346Z" fill="#3BB30B"/>
</svg>
